<svg width="30" height="30" viewBox="0 0 30 30" fill="none" xmlns="http://www.w3.org/2000/svg">
<path fill-rule="evenodd" clip-rule="evenodd" d="M23.4819 3.705C23.3653 3.705 23.2486 3.675 23.1465 3.615C20.3459 2.13 17.9246 1.5 15.0219 1.5C12.1338 1.5 9.39156 2.205 6.8973 3.615C6.54723 3.81 6.10964 3.675 5.90543 3.315C5.71581 2.955 5.84709 2.49 6.19716 2.295C8.91021 0.78 11.8858 0 15.0219 0C18.1288 0 20.8418 0.705 23.8174 2.28C24.1821 2.475 24.3134 2.925 24.1237 3.285C23.9925 3.555 23.7445 3.705 23.4819 3.705ZM2.60892 11.58C2.46306 11.58 2.3172 11.535 2.18592 11.445C1.85043 11.205 1.7775 10.74 2.01088 10.395C3.45493 8.295 5.29281 6.645 7.48075 5.49C12.0609 3.06 17.9246 3.045 22.5192 5.475C24.7072 6.63 26.5451 8.265 27.9891 10.35C28.2225 10.68 28.1496 11.16 27.8141 11.4C27.4786 11.64 27.0264 11.565 26.793 11.22C25.4803 9.33 23.8174 7.845 21.8483 6.81C17.662 4.605 12.3088 4.605 8.13714 6.825C6.1534 7.875 4.49056 9.375 3.17779 11.265C3.0611 11.475 2.8423 11.58 2.60892 11.58ZM11.7254 29.685C11.5358 29.685 11.3461 29.61 11.2149 29.46C9.94584 28.155 9.26028 27.315 8.283 25.5C7.27655 23.655 6.75144 21.405 6.75144 18.99C6.75144 14.535 10.4564 10.905 15.0073 10.905C19.5582 10.905 23.2631 14.535 23.2631 18.99C23.2631 19.41 22.9422 19.74 22.5338 19.74C22.1254 19.74 21.8045 19.41 21.8045 18.99C21.8045 15.36 18.756 12.405 15.0073 12.405C11.2586 12.405 8.21007 15.36 8.21007 18.99C8.21007 21.15 8.67683 23.145 9.5666 24.765C10.5001 26.49 11.1419 27.225 12.2651 28.395C12.5422 28.695 12.5422 29.16 12.2651 29.46C12.1046 29.61 11.915 29.685 11.7254 29.685ZM22.1838 26.91C20.448 26.91 18.9164 26.46 17.662 25.575C15.4886 24.06 14.1905 21.6 14.1905 18.99C14.1905 18.57 14.5114 18.24 14.9198 18.24C15.3282 18.24 15.6491 18.57 15.6491 18.99C15.6491 21.105 16.6993 23.1 18.4788 24.33C19.5145 25.05 20.7251 25.395 22.1838 25.395C22.5338 25.395 23.1173 25.35 23.7007 25.245C24.0946 25.17 24.4738 25.44 24.5467 25.86C24.6197 26.265 24.3571 26.655 23.9487 26.73C23.1173 26.895 22.388 26.91 22.1838 26.91ZM19.2519 30C19.1936 30 19.1206 29.985 19.0623 29.97C16.7431 29.31 15.2261 28.425 13.6362 26.82C11.5941 24.735 10.4709 21.96 10.4709 18.99C10.4709 16.56 12.4839 14.58 14.9635 14.58C17.4432 14.58 19.4561 16.56 19.4561 18.99C19.4561 20.595 20.8126 21.9 22.4901 21.9C24.1675 21.9 25.524 20.595 25.524 18.99C25.524 13.335 20.7835 8.745 14.9489 8.745C10.8064 8.745 7.01399 11.115 5.30739 14.79C4.73853 16.005 4.4468 17.43 4.4468 18.99C4.4468 20.16 4.5489 22.005 5.42408 24.405C5.56995 24.795 5.38032 25.23 5.00108 25.365C4.62184 25.515 4.19883 25.305 4.06756 24.93C3.35283 22.965 3.00275 21.015 3.00275 18.99C3.00275 17.19 3.33824 15.555 3.99462 14.13C5.9346 9.945 10.2376 7.23 14.9489 7.23C21.5857 7.23 26.9827 12.495 26.9827 18.975C26.9827 21.405 24.9697 23.385 22.4901 23.385C20.0104 23.385 17.9975 21.405 17.9975 18.975C17.9975 17.37 16.641 16.065 14.9635 16.065C13.2861 16.065 11.9296 17.37 11.9296 18.975C11.9296 21.54 12.8923 23.94 14.6572 25.74C16.0429 27.15 17.3703 27.93 19.4269 28.515C19.8208 28.62 20.0396 29.04 19.9375 29.43C19.8645 29.775 19.5582 30 19.2519 30Z" fill="#2F3343"/>
</svg>
