<?xml version="1.0" encoding="UTF-8"?><svg id="Layer_1" xmlns="http://www.w3.org/2000/svg" viewBox="0 0 1890.52 2000"><defs><style>.cls-1,.cls-2,.cls-3,.cls-4,.cls-5{stroke-width:0px;}.cls-2{fill:#4accff;}.cls-3{fill:#4da6ff;}.cls-4{fill:#4576ff;}.cls-5{fill:#204bd1;}</style></defs><path class="cls-2" d="m770.98,1323.38l172.64,165.26,524.58-494.55s-1.19-145.6,0-326.91l-697.22,656.19Z"/><polygon class="cls-3" points="595.47 1155.41 770.98 1323.38 1468.2 667.19 1468.2 339.06 595.47 1155.41"/><polygon class="cls-4" points="425.38 992.58 595.47 1155.41 1468.2 339.05 1468.2 0 1116.58 338.96 425.38 992.58"/><polygon class="cls-5" points="425.38 338.96 425.38 992.58 1116.58 338.96 425.38 338.96"/><path class="cls-1" d="m217.3,1672.46v245.05h-66.1l-106.51-185.28h-1.49c2.11,33.52,3.17,56.86,3.17,70.02v115.26H0v-245.05h65.36l106.51,183.6h1.12c-1.61-30.66-2.42-53.19-2.42-67.59v-116.01h46.74Z"/><path class="cls-1" d="m347.36,1726.65c27.18-.37,49.16,8.35,65.92,26.16,16.76,17.82,24.89,41.37,24.39,70.66,0,30.54-8.04,54.41-24.11,71.6-16.08,17.19-38.45,25.79-67.13,25.79-27.19.25-49.13-8.57-65.82-26.44-16.7-17.88-24.86-41.53-24.49-70.95,0-30.54,7.94-54.31,23.83-71.31,16.01-17.01,38.48-25.51,67.41-25.51Zm28.95,54.84c-6.15-9.12-15.98-13.69-29.51-13.69s-23.34,4.56-29.42,13.69c-6.08,9.13-9.12,23.16-9.12,42.08s3.1,33.05,9.31,42.36c6.2,9.31,16.01,13.97,29.42,13.97s23.18-4.66,29.33-13.97c6.15-9.31,9.22-23.43,9.22-42.36s-3.07-32.96-9.22-42.08Z"/><path class="cls-1" d="m577.22,1726.65c6.45,0,12.16.5,17.13,1.49l-3.72,47.86c-4.22-1.12-9.25-1.68-15.08-1.68-16.39,0-29.14,4.19-38.27,12.57-9.12,8.38-13.69,20.14-13.69,35.29v95.34h-51.02v-187.32h38.73l7.45,31.47h2.61c5.96-10.68,13.9-19.18,23.83-25.51,9.93-6.33,20.6-9.5,32.03-9.5Z"/><path class="cls-1" d="m677.66,1858.86c0,7.07,1.99,12.38,5.96,15.92,3.97,3.54,9.99,5.31,18.06,5.31s18.25-1.92,30.54-5.77v37.99c-12.66,5.71-28.7,8.57-48.13,8.57s-33.86-5.09-43.29-15.27c-9.44-10.18-14.15-25.76-14.15-46.74v-90.31h-24.58v-21.6l28.12-17.13,14.89-39.48h32.59v39.85h52.51v38.36h-52.51v90.31Z"/><path class="cls-1" d="m935.63,1795.36v122.15h-51.21v-109.49c0-26.94-10.06-40.41-30.17-40.41-14.28,0-24.61,4.84-31,14.52-6.4,9.68-9.59,25.45-9.59,47.29v88.08h-51.02v-260.69h51.02v53.07c0,9.43-.74,24.21-2.24,44.32h2.61c11.29-18.37,29.42-27.56,54.37-27.56,21.85,0,38.51,5.9,50,17.69,11.48,11.8,17.23,28.8,17.23,51.02Z"/><path class="cls-1" d="m1143.89,1730.19v25.88l-29.42,7.63c5.34,8.32,8.01,17.69,8.01,28.12,0,19.99-6.98,35.63-20.95,46.92-13.96,11.29-33.42,16.94-58.37,16.94l-16.76-1.31c-5.34,3.85-8.01,8.32-8.01,13.41,0,7.32,9.43,10.98,28.3,10.98h31.84c20.6,0,36.28,4.41,47.02,13.22,10.73,8.82,16.11,21.79,16.11,38.91,0,21.85-9.16,38.82-27.47,50.93-18.32,12.1-44.54,18.16-78.67,18.16-25.95,0-45.87-4.53-59.77-13.59-13.91-9.06-20.85-21.85-20.85-38.36,0-11.3,3.54-20.73,10.61-28.3,7.07-7.57,17.44-13.03,31.09-16.38-5.46-2.36-10.12-6.05-13.97-11.08-3.85-5.03-5.77-10.64-5.77-16.85s1.95-11.7,5.86-16.48c3.91-4.78,10.02-9.59,18.34-14.43-9.93-4.47-17.75-11.39-23.46-20.76-5.71-9.37-8.57-20.33-8.57-32.86,0-20.48,6.67-36.31,20.02-47.48,13.34-11.18,32.31-16.76,56.88-16.76,4.72,0,11.02.5,18.9,1.49,7.88,1,12.44,1.68,13.69,2.05h65.36Zm-135.19,196.26c-6.33,4.47-9.5,10.27-9.5,17.41s3.38,12.73,10.15,16.76c6.77,4.03,16.23,6.05,28.4,6.05,18.25,0,32.59-2.51,43.01-7.54,10.43-5.02,15.64-11.89,15.64-20.57,0-6.95-2.98-11.79-8.94-14.52-5.96-2.73-15.58-4.1-28.86-4.1h-26.44c-9.19,0-17.01,2.17-23.46,6.52Zm37.24-168.89c-18.75,0-28.12,11.3-28.12,33.89,0,10.43,2.39,18.56,7.17,24.39,4.78,5.84,11.79,8.75,21.04,8.75s16.17-2.91,20.76-8.75c4.59-5.83,6.89-13.97,6.89-24.39,0-22.59-9.25-33.89-27.75-33.89Z"/><path class="cls-1" d="m1339.11,1917.51h-39.1l-6.89-24.02h-2.79c-5.46,8.82-13.22,15.58-23.28,20.3-10.05,4.72-21.48,7.07-34.26,7.07-21.85,0-38.39-5.87-49.63-17.6-11.24-11.73-16.85-28.71-16.85-50.93v-122.15h51.02v109.49c0,13.53,2.42,23.65,7.26,30.35,4.84,6.7,12.47,10.05,22.9,10.05,14.28,0,24.61-4.75,31-14.24,6.39-9.5,9.59-25.35,9.59-47.58v-88.08h51.02v187.32Z"/><path class="cls-1" d="m1540.1,1917.51h-35.75l-9.87-25.51h-1.31c-8.69,10.92-17.57,18.47-26.63,22.62-9.06,4.15-20.92,6.24-35.57,6.24-18.12,0-32.34-5.18-42.64-15.55-10.3-10.36-15.46-25.17-15.46-44.41s6.86-33.64,20.58-43.2c13.71-9.56,34.79-14.83,63.22-15.83l32.58-.93v-8.19c0-18.99-9.75-28.49-29.24-28.49-14.77,0-32.34,4.47-52.69,13.41l-16.94-34.45c21.47-11.29,45.15-16.94,71.04-16.94s45.46,5.56,58.75,16.66c13.28,11.11,19.92,27.72,19.92,49.81v124.76Zm-50.83-71.32v-15.46l-19.74.56c-15.02.5-26.13,3.2-33.33,8.1-7.2,4.91-10.8,12.38-10.8,22.44,0,14.4,8.25,21.6,24.77,21.6,11.92,0,21.41-3.38,28.49-10.15,7.08-6.77,10.61-15.8,10.61-27.1Z"/><path class="cls-1" d="m1689.89,1726.65c6.45,0,12.16.5,17.13,1.49l-3.72,47.86c-4.22-1.12-9.25-1.68-15.09-1.68-16.38,0-29.14,4.19-38.26,12.57-9.13,8.38-13.69,20.14-13.69,35.29v95.34h-51.02v-187.32h38.73l7.45,31.47h2.6c5.96-10.68,13.9-19.18,23.84-25.51,9.93-6.33,20.61-9.5,32.03-9.5Z"/><path class="cls-1" d="m1839.32,1893.3c-11.67,18.37-28.96,27.56-51.86,27.56s-40.63-8.5-53.16-25.51c-12.54-17.25-18.81-41.15-18.81-71.69s6.42-54.34,19.27-71.41c12.85-17.07,30.75-25.61,53.72-25.61s40.66,9.19,53.07,27.56h1.68c-2.61-14.03-3.91-26.5-3.91-37.43v-59.96h51.2v260.69h-39.1l-9.87-24.21h-2.23Zm-72.06-68.52c0,36.87,12.29,55.3,36.87,55.3,13.03,0,22.62-3.82,28.77-11.45,6.14-7.64,9.46-20.51,9.96-38.64v-5.4c0-20.11-3.1-34.54-9.31-43.29-6.21-8.75-16.33-13.13-30.35-13.13-11.42,0-20.26,4.87-26.53,14.62-6.27,9.75-9.4,23.74-9.4,41.99Z"/></svg>